# xmcd
#
# Track frame offsets:
#	150
#	16935
#	35145
#	55547
#	70945
#	87005
#	104707
#	125107
#	141630
#	155237
#	180280
#	204960
#	226510
#	242480
#	267067
#	287855
#
# Disc length: 4078 seconds
#
# Revision: 0
# Processed by: cddbd v1.4PL0 Copyright (c) Steve Scherf et al.
# Submitted via: dBpowerAMP V4.0
#
DISCID=df0fec10
DTITLE=SOOS - Train of Love
DYEAR=2001
DGENRE=
TTITLE0=Train of Love
TTITLE1=Friday Evening
TTITLE2=Run Wild
TTITLE3=Take My Hand, Look Into My Eyes
TTITLE4=You Can Have it All
TTITLE5=Love Is A Gambler's Game
TTITLE6=Slow Night Blues
TTITLE7=The Drive
TTITLE8=Learing How To Breathe Again
TTITLE9=No Sourenirs
TTITLE10=Clarissa
TTITLE11=Losing You
TTITLE12=Ain't No Christmas In Hell
TTITLE13=Back Here With The Blues
TTITLE14=Lonely Moon
TTITLE15=Friday Evening (acoustic)
EXTD=
EXTT0=
EXTT1=
EXTT2=
EXTT3=
EXTT4=
EXTT5=
EXTT6=
EXTT7=
EXTT8=
EXTT9=
EXTT10=
EXTT11=
EXTT12=
EXTT13=
EXTT14=
EXTT15=
PLAYORDER=
